<svg width="80" height="72" viewBox="0 0 80 72" fill="none" xmlns="http://www.w3.org/2000/svg">
<path d="M66.6667 22C66.6667 17.286 66.6667 14.9289 65.2022 13.4645C63.7377 12 61.3807 12 56.6667 12H23.3333C18.6193 12 16.2623 12 14.7978 13.4645C13.3333 14.9289 13.3333 17.286 13.3333 22V58C13.3333 58.9428 13.3333 59.4142 13.6262 59.7071C13.9191 60 14.3905 60 15.3333 60H56.6667C61.3807 60 63.7377 60 65.2022 58.5355C66.6667 57.0711 66.6667 54.714 66.6667 50V22Z" fill="#7E869E" fill-opacity="0.25"/>
<path d="M28.3333 25.5H51.6667" stroke="#3737C8" stroke-width="5" stroke-linecap="round" stroke-linejoin="round"/>
<path d="M28.3333 34.5H45" stroke="#3737C8" stroke-width="5" stroke-linecap="round" stroke-linejoin="round"/>
<path d="M60.8333 46.5C60.8333 49.0202 58.4759 51.5 55 51.5C51.524 51.5 49.1667 49.0202 49.1667 46.5C49.1667 43.9798 51.524 41.5 55 41.5C58.4759 41.5 60.8333 43.9798 60.8333 46.5Z" stroke="#3737C8" stroke-width="5"/>
<path d="M63.3333 54L68.3333 58.5" stroke="#3737C8" stroke-width="5" stroke-linecap="round"/>
</svg>
