<svg width="80" height="72" viewBox="0 0 80 72" fill="none" xmlns="http://www.w3.org/2000/svg">
<g filter="url(#filter0_d_7_54)">
<path d="M64.4196 16.8517C66.6666 19.7943 66.6666 23.8906 66.6666 32.0833C66.6666 40.276 66.6666 44.3724 64.4196 47.315C63.4468 48.5889 62.1968 49.6826 60.7409 50.5338C57.8031 52.2514 53.859 52.4686 46.6667 52.496V52.5L42.9814 58.9492C41.753 61.0989 38.247 61.0989 37.0186 58.9492L33.3333 52.5V52.496C26.141 52.4686 22.1969 52.2514 19.2591 50.5338C17.8032 49.6826 16.5532 48.5889 15.5804 47.315C13.3333 44.3724 13.3333 40.276 13.3333 32.0833C13.3333 23.8906 13.3333 19.7943 15.5804 16.8517C16.5532 15.5778 17.8032 14.484 19.2591 13.6328C22.622 11.6667 27.3036 11.6667 36.6667 11.6667H43.3333C52.6964 11.6667 57.3779 11.6667 60.7409 13.6328C62.1968 14.484 63.4468 15.5778 64.4196 16.8517Z" fill="#7E869E" fill-opacity="0.25" stroke="white" stroke-width="5" stroke-linecap="round" stroke-linejoin="round"/>
<path d="M30 26.25L50 26.25" stroke="white" stroke-width="5" stroke-linecap="round" stroke-linejoin="round"/>
<path d="M30 37.9167H40" stroke="white" stroke-width="5" stroke-linecap="round" stroke-linejoin="round"/>
</g>
<defs>
<filter id="filter0_d_7_54" x="-4" y="0" width="88" height="78" filterUnits="userSpaceOnUse" color-interpolation-filters="sRGB">
<feFlood flood-opacity="0" result="BackgroundImageFix"/>
<feColorMatrix in="SourceAlpha" type="matrix" values="0 0 0 0 0 0 0 0 0 0 0 0 0 0 0 0 0 0 127 0" result="hardAlpha"/>
<feOffset dy="4"/>
<feGaussianBlur stdDeviation="2"/>
<feComposite in2="hardAlpha" operator="out"/>
<feColorMatrix type="matrix" values="0 0 0 0 0 0 0 0 0 0 0 0 0 0 0 0 0 0 0.25 0"/>
<feBlend mode="normal" in2="BackgroundImageFix" result="effect1_dropShadow_7_54"/>
<feBlend mode="normal" in="SourceGraphic" in2="effect1_dropShadow_7_54" result="shape"/>
</filter>
</defs>
</svg>
