<svg width="82" height="65" viewBox="0 0 82 65" fill="none" xmlns="http://www.w3.org/2000/svg">
<path d="M7.98037 14.8074L23.16 2.50996C23.527 2.21265 24.052 2.21265 24.419 2.50996L39.4619 14.6967C39.9559 15.0969 39.9559 15.8505 39.4619 16.2507L29.3143 24.4715C28.5327 25.1048 28.343 26.22 28.8713 27.076L32.3071 32.6428C34.8773 36.8072 38.7088 40.0433 43.2445 41.8805L51.8015 45.3466C52.476 45.6199 53.2458 45.5051 53.8113 45.047L64.7389 36.1942C65.1059 35.8969 65.6309 35.8969 65.9979 36.1942L81.0409 48.3809C81.5349 48.7811 81.5349 49.5347 81.0409 49.9349L64.4928 63.3409C62.5241 64.9358 59.7657 65.1222 57.6004 63.8065L30.6966 47.4599C28.8727 46.3517 27.2118 44.995 25.7619 43.4288L7.35438 23.5456C4.99743 20.9997 5.28458 16.9913 7.98037 14.8074Z" fill="#3737C8"/>
</svg>
