<svg width="63" height="51" viewBox="0 0 63 51" fill="none" xmlns="http://www.w3.org/2000/svg">
<path d="M23.625 21.25L33.4804 27.2337C33.862 27.4653 34.3509 27.416 34.6785 27.1129L52.5 10.625" stroke="#3737C8" stroke-width="6" stroke-linecap="round"/>
<path d="M55.125 25.5C55.125 29.496 53.5788 33.3917 50.7035 36.6399C47.8282 39.8881 43.7683 42.3256 39.094 43.61C34.4197 44.8945 29.3658 44.9615 24.642 43.8015C19.9183 42.6415 15.762 40.3128 12.757 37.1426C9.75201 33.9723 8.04916 30.1197 7.88765 26.1258C7.72614 22.1319 9.11408 18.1973 11.8565 14.8747C14.599 11.5521 18.5582 9.00841 23.1781 7.6008C27.798 6.19319 32.8465 5.99242 37.6146 7.02667" stroke="#3737C8" stroke-width="6" stroke-linecap="round"/>
</svg>
