<svg width="59" height="50" viewBox="0 0 59 50" fill="none" xmlns="http://www.w3.org/2000/svg">
<path fill-rule="evenodd" clip-rule="evenodd" d="M29.5 39.5833C39.0039 39.5833 46.7083 33.0541 46.7083 25C46.7083 16.9458 39.0039 10.4167 29.5 10.4167C19.9961 10.4167 12.2917 16.9458 12.2917 25C12.2917 33.0541 19.9961 39.5833 29.5 39.5833ZM24.1866 14.3951C25.8675 13.805 27.6734 13.5 29.5 13.5C29.7761 13.5 30 13.2761 30 13C30 12.7238 29.7761 12.5 29.5 12.5C27.563 12.5 25.645 12.8233 23.8554 13.4515C22.0659 14.0797 20.4398 15.0004 19.0702 16.1612C17.7005 17.3219 16.614 18.6999 15.8728 20.2164C15.1315 21.733 14.75 23.3585 14.75 25C14.75 25.2761 14.9738 25.5 15.25 25.5C15.5261 25.5 15.75 25.2761 15.75 25C15.75 23.5151 16.0948 22.0394 16.7712 20.6556C17.448 19.271 18.4457 18.0012 19.7167 16.9241C20.988 15.8467 22.5058 14.9851 24.1866 14.3951Z" fill="#7E869E" fill-opacity="0.25"/>
<path d="M50.3958 42.7083L41.7917 35.4167" stroke="#3737C8" stroke-width="5" stroke-linecap="round"/>
<path d="M46.6666 22.9167C46.6666 31.5194 38.2841 39.1666 27.0417 39.1666C15.7992 39.1666 7.41666 31.5194 7.41666 22.9167C7.41666 14.314 15.7992 6.66666 27.0417 6.66666C38.2841 6.66666 46.6666 14.314 46.6666 22.9167Z" stroke="#3737C8" stroke-width="5"/>
</svg>
