<svg width="84" height="73" viewBox="0 0 84 73" fill="none" xmlns="http://www.w3.org/2000/svg">
<g filter="url(#filter0_d_7_48)">
<path d="M10.5 17.125C10.5 13.3538 10.5 11.4681 11.6716 10.2966C12.8431 9.125 14.7288 9.125 18.5 9.125H65.5C69.2712 9.125 71.1569 9.125 72.3284 10.2966C73.5 11.4681 73.5 13.3538 73.5 17.125V55.875C73.5 59.6462 73.5 61.5319 72.3284 62.7034C71.1569 63.875 69.2712 63.875 65.5 63.875H18.5C14.7288 63.875 12.8431 63.875 11.6716 62.7034C10.5 61.5319 10.5 59.6462 10.5 55.875V17.125Z" fill="#7E869E" fill-opacity="0.25"/>
<ellipse cx="42" cy="30.4167" rx="14" ry="12.1667" fill="white"/>
<path fill-rule="evenodd" clip-rule="evenodd" d="M66.4979 63.6238C66.5004 63.7616 66.3887 63.8744 66.2509 63.8746C66.0093 63.875 65.7591 63.875 65.5 63.875H18.5C18.2411 63.875 17.991 63.875 17.7495 63.8746C17.6117 63.8744 17.5 63.7616 17.5025 63.6238C17.6829 53.6604 28.5818 45.625 42.0002 45.625C55.4186 45.625 66.3175 53.6604 66.4979 63.6238Z" fill="white"/>
</g>
<defs>
<filter id="filter0_d_7_48" x="-4" y="0" width="92" height="81" filterUnits="userSpaceOnUse" color-interpolation-filters="sRGB">
<feFlood flood-opacity="0" result="BackgroundImageFix"/>
<feColorMatrix in="SourceAlpha" type="matrix" values="0 0 0 0 0 0 0 0 0 0 0 0 0 0 0 0 0 0 127 0" result="hardAlpha"/>
<feOffset dy="4"/>
<feGaussianBlur stdDeviation="2"/>
<feComposite in2="hardAlpha" operator="out"/>
<feColorMatrix type="matrix" values="0 0 0 0 0 0 0 0 0 0 0 0 0 0 0 0 0 0 0.25 0"/>
<feBlend mode="normal" in2="BackgroundImageFix" result="effect1_dropShadow_7_48"/>
<feBlend mode="normal" in="SourceGraphic" in2="effect1_dropShadow_7_48" result="shape"/>
</filter>
</defs>
</svg>
