<svg width="170" height="176" viewBox="0 0 170 176" fill="none" xmlns="http://www.w3.org/2000/svg">
<path fill-rule="evenodd" clip-rule="evenodd" d="M46.0416 117.333H113.333C126.69 117.333 133.368 117.333 137.517 113.038C141.667 108.742 141.667 101.828 141.667 88V51.3333C141.667 37.5055 141.667 30.5915 137.517 26.2958C133.368 22 126.69 22 113.333 22H56.6666C43.3102 22 36.632 22 32.4826 26.2958C28.3333 30.5915 28.3333 37.5055 28.3333 51.3333V135.667C28.3333 125.541 36.2616 117.333 46.0416 117.333ZM110.925 63.1825C113.419 60.6004 113.348 56.4855 110.766 53.9915C108.184 51.4975 104.069 51.5688 101.575 54.1509L77.9166 78.644L68.4252 68.8175C65.9312 66.2355 61.8162 66.1641 59.2342 68.6581C56.6521 71.1522 56.5808 75.2671 59.0748 77.8491L72.5222 91.7712C75.4707 94.8238 80.3626 94.8238 83.3111 91.7712L110.925 63.1825Z" fill="#5D5FEF"/>
<path d="M137.517 113.038L136.798 112.343L136.798 112.343L137.517 113.038ZM137.517 26.2958L136.798 26.9905L136.798 26.9905L137.517 26.2958ZM110.925 63.1825L110.206 62.4877L110.206 62.4877L110.925 63.1825ZM101.575 54.1509L102.294 54.8456L102.294 54.8456L101.575 54.1509ZM77.9166 78.644L77.1974 79.3387L77.9166 80.0834L78.6359 79.3387L77.9166 78.644ZM68.4252 68.8175L69.1444 68.1228L69.1444 68.1228L68.4252 68.8175ZM59.2342 68.6581L58.5394 67.9389L58.5394 67.9389L59.2342 68.6581ZM59.0748 77.8491L58.3555 78.5439L58.3555 78.5439L59.0748 77.8491ZM72.5222 91.7712L73.2415 91.0764L73.2415 91.0764L72.5222 91.7712ZM83.3111 91.7712L84.0304 92.4659L84.0304 92.4659L83.3111 91.7712ZM113.333 116.333H46.0416V118.333H113.333V116.333ZM136.798 112.343C134.939 114.268 132.481 115.285 128.74 115.806C124.967 116.331 120.041 116.333 113.333 116.333V118.333C119.982 118.333 125.073 118.336 129.016 117.787C132.991 117.234 135.947 116.103 138.237 113.732L136.798 112.343ZM140.667 88C140.667 94.9413 140.665 100.05 140.156 103.965C139.651 107.854 138.662 110.413 136.798 112.343L138.237 113.732C140.522 111.366 141.607 108.321 142.14 104.222C142.669 100.149 142.667 94.8866 142.667 88H140.667ZM140.667 51.3333V88H142.667V51.3333H140.667ZM136.798 26.9905C138.662 28.9204 139.651 31.4796 140.156 35.3688C140.665 39.2833 140.667 44.3921 140.667 51.3333H142.667C142.667 44.4467 142.669 39.1846 142.14 35.1112C141.607 31.0126 140.522 27.9669 138.237 25.601L136.798 26.9905ZM113.333 23C120.041 23 124.967 23.0023 128.74 23.5274C132.481 24.0481 134.939 25.0654 136.798 26.9905L138.237 25.601C135.947 23.2303 132.991 22.0998 129.016 21.5465C125.073 20.9977 119.982 21 113.333 21V23ZM56.6666 23H113.333V21H56.6666V23ZM33.2019 26.9905C35.0613 25.0654 37.5194 24.0481 41.2598 23.5274C45.0327 23.0023 49.9592 23 56.6666 23V21C50.0177 21 44.9268 20.9977 40.9841 21.5465C37.009 22.0998 34.0532 23.2303 31.7634 25.601L33.2019 26.9905ZM29.3333 51.3333C29.3333 44.3921 29.3353 39.2833 29.8437 35.3688C30.3487 31.4796 31.3378 28.9204 33.2019 26.9905L31.7634 25.601C29.4782 27.9669 28.3926 31.0126 27.8603 35.1112C27.3313 39.1846 27.3333 44.4467 27.3333 51.3333H29.3333ZM29.3333 135.667V51.3333H27.3333V135.667H29.3333ZM46.0416 116.333C35.6769 116.333 27.3333 125.022 27.3333 135.667H29.3333C29.3333 126.061 36.8463 118.333 46.0416 118.333V116.333ZM110.071 54.7107C112.256 56.8211 112.316 60.3029 110.206 62.4877L111.644 63.8772C114.522 60.898 114.44 56.1499 111.461 53.2722L110.071 54.7107ZM102.294 54.8456C104.404 52.6608 107.886 52.6004 110.071 54.7107L111.461 53.2722C108.481 50.3945 103.733 50.4768 100.856 53.4561L102.294 54.8456ZM78.6359 79.3387L102.294 54.8456L100.856 53.4561L77.1974 77.9492L78.6359 79.3387ZM67.7059 69.5123L77.1974 79.3387L78.6359 77.9492L69.1444 68.1228L67.7059 69.5123ZM59.9289 69.3774C62.1137 67.2671 65.5956 67.3275 67.7059 69.5123L69.1444 68.1228C66.2667 65.1435 61.5187 65.0612 58.5394 67.9389L59.9289 69.3774ZM59.794 77.1544C57.6837 74.9696 57.7441 71.4877 59.9289 69.3774L58.5394 67.9389C55.5602 70.8166 55.4778 75.5646 58.3555 78.5439L59.794 77.1544ZM73.2415 91.0764L59.794 77.1544L58.3555 78.5439L71.8029 92.4659L73.2415 91.0764ZM82.5918 91.0764C80.0364 93.722 75.7968 93.722 73.2415 91.0764L71.8029 92.4659C75.1446 95.9255 80.6887 95.9255 84.0304 92.4659L82.5918 91.0764ZM110.206 62.4877L82.5918 91.0764L84.0304 92.4659L111.644 63.8772L110.206 62.4877ZM77.9166 153H46.0416V155H77.9166V153ZM27.3333 135.667C27.3333 146.311 35.6769 155 46.0416 155V153C36.8463 153 29.3333 145.273 29.3333 135.667H27.3333Z" fill="#5D5FEF"/>
<path d="M141.667 154H70.8333" stroke="#5D5FEF" stroke-width="2" stroke-linecap="round"/>
</svg>
