<svg width="1254" height="437" viewBox="0 0 1254 437" fill="none" xmlns="http://www.w3.org/2000/svg">
<path d="M1254 0H-183V437H1254V0Z" fill="white"/>
<path d="M797.353 0H787.773V36.4167H1024.08V72.8333H843.657V109.25H1001.73V145.667H832.48V182.083H866.01V218.5H984.163V254.917H1044.84V291.333H1094.33V327.75H934.667V364.167H794.16V400.583H952.23V437H-183V400.583V364.167V327.75V291.333V254.917V218.5V182.083V145.667V109.25V72.8333V36.4167V0H797.353Z" fill="#FBF8FF"/>
<path d="M738.277 0H813.32V36.4167H944.247V72.8333H934.667V109.25H851.64V145.667H784.58V182.083H909.12V218.5H685.587V254.917H725.503V291.333H608.947V327.75H921.893V364.167H939.457V400.583H741.47V437H-183V400.583V364.167V327.75V291.333V254.917V218.5V182.083V145.667V109.25V72.8333V36.4167V0H738.277Z" fill="#F1EFFD"/>
<path d="M458.86 0H540.29V36.4167H529.113V72.8333H725.503V109.25H706.343V145.667H688.78V182.083H682.393V218.5H632.897V254.917H746.26V291.333H527.517V327.75H695.167V364.167H540.29V400.583H683.99V437H-183V400.583V364.167V327.75V291.333V254.917V218.5V182.083V145.667V109.25V72.8333V36.4167V0H458.86Z" fill="#E5E6FC"/>
<path d="M567.433 0H316.757V36.4167H315.16V72.8333H375.833V109.25H535.5V145.667H498.777V182.083H308.773V218.5H577.013V254.917H305.58V291.333H422.137V327.75H556.257V364.167H377.43V400.583H323.143V437H-183V400.583V364.167V327.75V291.333V254.917V218.5V182.083V145.667V109.25V72.8333V36.4167V0H567.433Z" fill="#D6DEFB"/>
<path d="M345.497 0H407.767V36.4167H388.607V72.8333H220.957V109.25H283.227V145.667H220.957V182.083H219.36V218.5H288.017V254.917H402.977V291.333H431.717V327.75H434.91V364.167H412.557V400.583H377.43V437H-183V400.583V364.167V327.75V291.333V254.917V218.5V182.083V145.667V109.25V72.8333V36.4167V0H345.497Z" fill="#C4D7FA"/>
<path d="M53.3067 0H238.52V36.4167H179.443V72.8333H158.687V109.25H102.803V145.667H85.24V182.083H155.493V218.5H158.687V254.917H96.4167V291.333H270.453V327.75H204.99V364.167H184.233V400.583H201.797V437H-183V400.583V364.167V327.75V291.333V254.917V218.5V182.083V145.667V109.25V72.8333V36.4167V0H53.3067Z" fill="#AFD0F8"/>
<path d="M82.0467 0H-104.763V36.4167H-20.14V72.8333H86.8367V109.25H-28.1233V145.667H-0.979996V182.083H-63.25V218.5H-96.78V254.917H-0.979996V291.333H-42.4933V327.75H58.0967V364.167H48.5167V400.583H-39.3V437H-183V400.583V364.167V327.75V291.333V254.917V218.5V182.083V145.667V109.25V72.8333V36.4167V0H82.0467Z" fill="#96CAF5"/>
</svg>
