<svg width="115" height="107" viewBox="0 0 115 107" fill="none" xmlns="http://www.w3.org/2000/svg">
<g id="Done_ring_round">
<path id="Line 1" d="M43.1249 44.5837L61.5829 57.4641C61.9899 57.7481 62.5436 57.6907 62.8836 57.3291L95.8333 22.292" stroke="#28B0BD" stroke-width="11" stroke-linecap="round"/>
<path id="Ellipse 47" d="M100.625 53.5C100.625 61.8839 97.8025 70.0571 92.554 76.8719C87.3055 83.6867 79.8946 88.8007 71.3621 91.4956C62.8296 94.1905 53.6042 94.3309 44.9815 91.8972C36.3588 89.4635 28.772 84.5779 23.2866 77.9266C17.8013 71.2752 14.6929 63.1922 14.3981 54.8129C14.1033 46.4335 16.6368 38.1787 21.6429 31.2077C26.6489 24.2368 33.8761 18.9 42.3092 15.9468C50.7424 12.9936 59.9579 12.5723 68.6616 14.7422" stroke="#28B0BD" stroke-width="11" stroke-linecap="round"/>
</g>
</svg>
